<svg width="26" height="26" viewBox="0 0 26 26" fill="none" xmlns="http://www.w3.org/2000/svg">
<path d="M6.49996 23.8332H4.76663C4.07706 23.8332 3.41574 23.5592 2.92815 23.0716C2.44055 22.5841 2.16663 21.9227 2.16663 21.2332V19.4998M19.5 23.8332H21.2333C21.9229 23.8332 22.5842 23.5592 23.0718 23.0716C23.5594 22.5841 23.8333 21.9227 23.8333 21.2332V19.4998M23.8333 6.49984V4.7665C23.8333 4.07694 23.5594 3.41562 23.0718 2.92803C22.5842 2.44043 21.9229 2.1665 21.2333 2.1665H19.5M6.49996 2.1665H4.76663C4.07706 2.1665 3.41574 2.44043 2.92815 2.92803C2.44055 3.41562 2.16663 4.07694 2.16663 4.7665V6.49984" stroke="currentColor" stroke-width="2" stroke-miterlimit="10" stroke-linecap="round" stroke-linejoin="round"/>
<path d="M19.5 9.75V16.25M15.1667 9.75V16.25M10.8333 9.75V16.25M6.5 9.75V16.25" stroke="currentColor" stroke-width="2" stroke-miterlimit="10" stroke-linecap="round"/>
</svg>
