<svg width="18" height="24" viewBox="0 0 18 24" fill="none" xmlns="http://www.w3.org/2000/svg">
<g clip-path="url(#clip0_2591_9395)">
<path d="M2.96698 23C2.58122 23 2.19835 22.8866 1.86787 22.6648C1.32079 22.2976 0.994141 21.6851 0.994141 21.0262V2.92733C0.994098 1.8646 1.8587 1 2.92143 1H15.0771C16.1398 1 17.0044 1.8646 17.0044 2.92733V21.0262C17.0044 21.6851 16.6778 22.2976 16.1307 22.6648C15.5835 23.0319 14.8928 23.102 14.2832 22.8524L9.29327 20.8089C9.10379 20.7313 8.89489 20.7313 8.70541 20.8089L3.71547 22.8524C3.47398 22.9513 3.21984 23 2.96698 23Z" fill="#B7410E" stroke="#B7410E" stroke-width="0.5"/>
</g>
<defs>
<clipPath id="clip0_2591_9395">
<rect width="18" height="24" fill="white"/>
</clipPath>
</defs>
</svg>
