<svg width="14" height="18" viewBox="0 0 14 18" fill="none" xmlns="http://www.w3.org/2000/svg">
<path d="M10.5281 5.43815C7.56131 3.63314 8.95257 1.08549 9.01227 0.979589C9.09889 0.828892 9.09863 0.643492 9.01156 0.493056C8.92452 0.342619 8.76389 0.25 8.59008 0.25C7.06289 0.25 5.867 0.68391 5.03563 1.53972C3.61506 3.00204 3.68096 5.27797 3.70907 6.24987C3.71219 6.35752 3.71488 6.45056 3.71488 6.51965C3.71488 7.24125 3.83065 7.90744 3.93281 8.49519C3.99865 8.87394 4.05549 9.20105 4.06559 9.45823C4.0764 9.73352 4.02614 9.79663 4.024 9.79916C4.01683 9.80766 3.95709 9.83945 3.79559 9.83945C3.61139 9.83945 3.47559 9.77926 3.35528 9.64437C2.88534 9.11742 2.85284 7.67857 2.9427 6.89577C2.95877 6.75773 2.91511 6.61944 2.82268 6.51569C2.73029 6.41193 2.59797 6.35259 2.45902 6.35259C1.19473 6.35259 0.25 8.42014 0.25 10.2687C0.25 11.1378 0.424784 11.9891 0.769516 12.799C1.10279 13.5819 1.57802 14.2886 2.18208 14.8992C3.44011 16.171 5.09878 16.8714 6.85259 16.8714C8.61346 16.8714 10.2717 16.1809 11.5219 14.9272C12.7688 13.6767 13.4555 12.0222 13.4555 10.2687C13.4555 8.03122 11.7048 6.15401 10.5281 5.43815ZM6.85259 15.8975C3.80156 15.8975 1.22394 13.3198 1.22394 10.2687C1.22394 9.52666 1.401 8.74776 1.7097 8.13176C1.7818 7.98785 1.85578 7.86439 1.92879 7.76038C1.93694 8.56375 2.0642 9.65892 2.62761 10.2916C2.93153 10.6329 3.33541 10.8133 3.79562 10.8133C4.22553 10.8133 4.55316 10.683 4.7693 10.426C5.17341 9.94564 5.04937 9.23195 4.89237 8.32839C4.79696 7.77943 4.68882 7.1572 4.68882 6.51961C4.68882 6.43641 4.68593 6.33691 4.68262 6.22163C4.65597 5.30102 4.60049 3.38537 5.73422 2.21834C6.24315 1.69441 6.95372 1.37555 7.85264 1.26644C7.75116 1.60341 7.66367 2.03118 7.66029 2.51015C7.65282 3.56548 8.05648 5.07443 10.022 6.2702C10.9729 6.84873 12.4816 8.44585 12.4816 10.2687C12.4816 13.3724 9.95641 15.8975 6.85259 15.8975Z" fill="#B7410E" stroke="#B7410E" stroke-width="0.5"/>
</svg>
