<svg width="26" height="26" viewBox="0 0 26 26" fill="none" xmlns="http://www.w3.org/2000/svg">
<path d="M17.4619 23.8038H23.666C24.0937 23.8038 24.4404 23.4572 24.4404 23.0295V20.4766L16.6161 17.6879L17.4619 23.8038ZM24.8273 9.62918C25.5444 8.90065 25.9999 7.89502 25.9999 7.05675C25.9999 4.37233 21.5983 2.19617 16.1687 2.19617H10.1406L12.4698 10.2832L24.4404 10.2624C24.4404 10.2624 24.3724 10.0913 24.8273 9.62918Z" fill="#B77220"/>
<path d="M12.1221 10.2625L16.6161 20.4766H24.4404V10.2625H12.1221Z" fill="#B77220"/>
<path d="M19.1045 7.4919C19.1045 4.98769 14.9983 2.95755 9.93311 2.95755C4.86792 2.95755 0.761719 4.98769 0.761719 7.4919C0.761719 8.45012 1.36341 9.3387 2.38944 10.0709V23.0424H17.6497V9.94333C18.5702 9.23652 19.1045 8.3951 19.1045 7.4919Z" fill="#F4D5A2"/>
<path d="M9.93262 2.95758V23.0424H17.6492V9.94331C18.5697 9.2365 19.104 8.39508 19.104 7.49188C19.104 4.98766 14.9979 2.95758 9.93262 2.95758Z" fill="#EDC07B"/>
<path d="M17.6493 23.8038H2.38905C1.96857 23.8038 1.62767 23.4629 1.62767 23.0425V10.4487C0.561033 9.58842 0 8.57249 0 7.4919C0 5.97574 1.10455 4.59471 3.11017 3.60314C4.94524 2.69583 7.36825 2.19617 9.93272 2.19617C12.4972 2.19617 14.9202 2.69583 16.7553 3.60314C18.7609 4.59471 19.8654 5.97574 19.8654 7.4919C19.8654 8.5093 19.3641 9.47528 18.4106 10.3042V23.0424C18.4107 23.4629 18.0698 23.8038 17.6493 23.8038ZM3.79167 21.6667H16.25V9.87089C16.25 9.75415 16.7401 9.31305 16.7917 9.20834C16.8433 9.10363 16.8738 9.15989 16.9664 9.08879C17.4942 8.68349 17.875 8.37604 17.875 7.58334C17.875 6.69025 17.146 6.1275 15.7083 5.41668C14.0789 4.61109 12.2677 4.33334 9.93272 4.33334C7.59773 4.33334 5.42101 4.61109 3.79167 5.41668C2.35388 6.12745 2.16667 6.6903 2.16667 7.58334C2.16667 8.43081 2.51325 8.99185 3.11017 9.41786C3.20887 9.48829 3.79167 9.75001 3.79167 9.75001C3.79167 9.75001 3.79167 9.82208 3.79167 9.94333V21.6667Z" fill="#EDC07B"/>
<path d="M16.7552 3.60314C14.9201 2.69583 12.4971 2.19617 9.93267 2.19617V4.33334C12.2677 4.33334 14.0788 4.61109 15.7082 5.41668C16.7915 5.95834 17.3332 6.50001 17.3332 7.58334C17.3332 8.37604 16.7777 9.3447 16.2499 9.75001V10.2917V21.6667H9.93267L9.93262 23.8037H17.6492C18.0697 23.8037 18.4106 23.4628 18.4106 23.0424V10.3042C19.364 9.47534 19.8653 8.50935 19.8653 7.49195C19.8653 5.97574 18.7608 4.59471 16.7552 3.60314Z" fill="#E49429"/>
</svg>
