<svg width="35" height="12" viewBox="0 0 35 12" fill="none" xmlns="http://www.w3.org/2000/svg">
<path d="M6 6H29" stroke="#B7410E" stroke-width="3"/>
<path d="M11.6604 5.83022C11.6604 9.05016 9.05016 11.6604 5.83022 11.6604C2.61028 11.6604 0 9.05016 0 5.83022C0 2.61028 2.61028 0 5.83022 0C9.05016 0 11.6604 2.61028 11.6604 5.83022Z" fill="#B7410E"/>
<path d="M8.83022 5.91511C8.83022 7.52508 7.52508 8.83022 5.91511 8.83022C4.30514 8.83022 3 7.52508 3 5.91511C3 4.30514 4.30514 3 5.91511 3C7.52508 3 8.83022 4.30514 8.83022 5.91511Z" fill="white"/>
<path d="M34.6604 5.83022C34.6604 9.05016 32.0502 11.6604 28.8302 11.6604C25.6103 11.6604 23 9.05016 23 5.83022C23 2.61028 25.6103 0 28.8302 0C32.0502 0 34.6604 2.61028 34.6604 5.83022Z" fill="#B7410E"/>
<path d="M31.8302 5.91511C31.8302 7.52508 30.5251 8.83022 28.9151 8.83022C27.3051 8.83022 26 7.52508 26 5.91511C26 4.30514 27.3051 3 28.9151 3C30.5251 3 31.8302 4.30514 31.8302 5.91511Z" fill="white"/>
</svg>
