<svg width="24" height="24" viewBox="0 0 24 24" fill="none" xmlns="http://www.w3.org/2000/svg">
<g clip-path="url(#clip0_2468_8075)">
<path d="M17.5781 1.40625H5.24662C4.75955 0.566437 3.8512 0 2.8125 0C1.26173 0 0 1.26169 0 2.8125V21.1875C0 22.7383 1.26169 24 2.8125 24H14.7656C15.1539 24 15.4688 23.6852 15.4688 23.2969V21.1875H17.5781C17.9664 21.1875 18.2812 20.8727 18.2812 20.4844V2.10938C18.2812 1.72106 17.9664 1.40625 17.5781 1.40625ZM1.40625 2.8125C1.40625 2.03709 2.03709 1.40625 2.8125 1.40625C3.58791 1.40625 4.21875 2.03709 4.21875 2.8125V18.7528C3.80016 18.5108 3.31753 18.375 2.8125 18.375C2.30039 18.375 1.8203 18.5132 1.40625 18.7534V2.8125ZM14.0625 22.5938H2.8125C2.03709 22.5938 1.40625 21.9629 1.40625 21.1875C1.40625 20.4121 2.03709 19.7812 2.8125 19.7812C3.40767 19.7812 3.94073 20.158 4.13892 20.7187C4.2382 20.9997 4.50389 21.1875 4.80188 21.1875H14.0625V22.5938ZM16.875 19.7812H5.625V2.8125H16.875V19.7812Z" fill="#B7410E"/>
<path d="M21.8906 1.40625C20.7275 1.40625 19.7812 2.35252 19.7812 3.51562C19.7812 3.97837 19.7812 17.1168 19.7812 17.6719C19.7812 17.675 19.7817 17.6779 19.7817 17.681C19.7819 17.6935 19.7828 17.7059 19.7836 17.7183C19.7949 17.8908 19.7667 17.7423 21.2235 22.1129C21.3194 22.4001 21.588 22.5938 21.8906 22.5938C22.1932 22.5938 22.4619 22.4001 22.5577 22.113C23.9992 17.7883 23.9791 17.892 23.9951 17.752C23.9963 17.7409 23.9969 17.7296 23.9976 17.7183C23.9985 17.7059 23.9993 17.6935 23.9995 17.681C23.9995 17.6779 24 17.675 24 17.6719C24 17.1363 24 3.9802 24 3.51562C24 2.35252 23.0537 1.40625 21.8906 1.40625ZM21.8906 19.6672L21.2598 17.7747C21.4201 17.6033 21.643 17.5059 21.8906 17.5059C22.1382 17.5059 22.3611 17.6033 22.5215 17.7747L21.8906 19.6672ZM22.5938 7.73438V16.2095C22.3708 16.1377 22.1341 16.0996 21.8906 16.0996C21.6471 16.0996 21.4105 16.1377 21.1875 16.2095V7.73438V6.51919C21.5289 6.04219 22.2522 6.042 22.5938 6.51919V7.73438ZM22.5938 4.86572C22.1485 4.72238 21.652 4.71614 21.1875 4.86572V3.51562C21.1875 3.12792 21.5029 2.8125 21.8906 2.8125C22.2783 2.8125 22.5938 3.12792 22.5938 3.51562V4.86572Z" fill="#B7410E"/>
<path d="M13.6909 5.65102C13.1993 4.77759 12.2725 4.21875 11.25 4.21875C10.2275 4.21875 9.30066 4.77759 8.80908 5.65102C7.80295 5.81058 7.03125 6.68405 7.03125 7.73438C7.03125 8.70061 7.68431 9.51722 8.57217 9.76594L9.16162 12.1237C9.23986 12.4366 9.52111 12.6562 9.84375 12.6562H12.6562C12.9789 12.6562 13.2601 12.4366 13.3384 12.1237L13.9278 9.76594C14.8157 9.51722 15.4688 8.70061 15.4688 7.73438C15.4688 6.68405 14.6971 5.81058 13.6909 5.65102ZM13.3594 8.4375C13.0368 8.4375 12.7555 8.65711 12.6773 8.97009L12.1073 11.25H10.3928L9.8228 8.97009C9.74452 8.65711 9.46327 8.4375 9.14062 8.4375C8.75292 8.4375 8.4375 8.12208 8.4375 7.73438C8.4375 7.3672 8.72039 7.06481 9.07969 7.03387C9.11269 7.04142 9.15342 7.04892 9.19945 7.053C9.52209 7.08192 9.82275 6.88659 9.92752 6.58008C10.1228 6.00881 10.6542 5.625 11.25 5.625C11.8458 5.625 12.3773 6.00881 12.5725 6.58008C12.6773 6.88669 12.9784 7.08197 13.3006 7.053C13.3465 7.04888 13.3873 7.04137 13.4203 7.03387C13.7796 7.06486 14.0625 7.3672 14.0625 7.73438C14.0625 8.12208 13.7471 8.4375 13.3594 8.4375Z" fill="#B7410E"/>
<path d="M14.7656 14.1562H7.73438C7.34606 14.1562 7.03125 14.4711 7.03125 14.8594C7.03125 15.2477 7.34606 15.5625 7.73438 15.5625H14.7656C15.1539 15.5625 15.4688 15.2477 15.4688 14.8594C15.4688 14.4711 15.1539 14.1562 14.7656 14.1562Z" fill="#B7410E"/>
<path d="M14.7656 16.9688H7.73438C7.34606 16.9688 7.03125 17.2836 7.03125 17.6719C7.03125 18.0602 7.34606 18.375 7.73438 18.375H14.7656C15.1539 18.375 15.4688 18.0602 15.4688 17.6719C15.4688 17.2836 15.1539 16.9688 14.7656 16.9688Z" fill="#B7410E"/>
</g>
<defs>
<clipPath id="clip0_2468_8075">
<rect width="24" height="24" fill="white"/>
</clipPath>
</defs>
</svg>
