<svg width="24" height="24" viewBox="0 0 24 24" fill="none" xmlns="http://www.w3.org/2000/svg">
<g clip-path="url(#clip0_40_232)">
<path d="M8.98748 24C4.03177 24 0 19.9682 0 15.0125C0 12.5249 1.11923 10.8298 2.1067 9.33422C2.99686 7.98609 3.76561 6.82177 3.76561 5.22188C3.76561 2.34253 6.10814 0 8.98748 0C11.8669 0 14.2094 2.34253 14.2094 5.22188C14.2094 6.82177 14.9781 7.98609 15.8683 9.33422C16.8557 10.8298 17.975 12.5249 17.975 15.0125C17.975 19.9682 13.9433 24 8.98748 24Z" fill="#89DB52"/>
<path d="M8.9873 0C11.8667 0 14.2092 2.34253 14.2092 5.22188C14.2092 6.82177 14.9779 7.98609 15.8681 9.33422C16.8556 10.8298 17.9748 12.5249 17.9748 15.0125C17.9748 19.9682 13.9431 24 8.9873 24V0Z" fill="#2FBF2A"/>
<path d="M15.0129 24C10.0572 24 6.02539 19.9682 6.02539 15.0125C6.02539 12.5249 7.14463 10.8298 8.13209 9.33422C9.02225 7.98609 9.791 6.82177 9.791 5.22188C9.791 2.34253 12.1335 0 15.0129 0C17.8923 0 20.2348 2.34253 20.2348 5.22188C20.2348 6.82177 21.0035 7.98609 21.8937 9.33422C22.8811 10.8298 24.0004 12.5249 24.0004 15.0125C24.0004 19.9682 19.9686 24 15.0129 24Z" fill="#ADEA63"/>
<path d="M15.0127 0C17.8921 0 20.2346 2.34253 20.2346 5.22188C20.2346 6.82177 21.0033 7.98609 21.8935 9.33422C22.8809 10.8298 24.0002 12.5249 24.0002 15.0125C24.0002 19.9682 19.9684 24 15.0127 24V0Z" fill="#88CF5A"/>
<path d="M15.0129 1.40625C12.909 1.40625 11.1973 3.11794 11.1973 5.22188C11.1973 7.24416 10.2357 8.70056 9.30566 10.1091C8.34191 11.5687 7.43164 12.9473 7.43164 15.0125C7.43164 19.1928 10.8326 22.5938 15.0129 22.5938C19.1932 22.5938 22.5942 19.1928 22.5942 15.0125C22.5942 12.9473 21.6839 11.5687 20.7201 10.1091C19.7901 8.70061 18.8285 7.24416 18.8285 5.22188C18.8285 3.11794 17.1169 1.40625 15.0129 1.40625Z" fill="#FFED98"/>
<path d="M15.0127 22.5938C19.193 22.5938 22.5939 19.1928 22.5939 15.0125C22.5939 12.9473 21.6837 11.5687 20.7199 10.1091C19.7899 8.70061 18.8283 7.24416 18.8283 5.22188C18.8283 3.11794 17.1166 1.40625 15.0127 1.40625V22.5938Z" fill="#FDD965"/>
<path d="M19.4884 15.0155C19.4884 12.5469 17.4872 10.5457 15.0186 10.5457C12.55 10.5457 10.5488 12.5469 10.5488 15.0155C10.5488 17.4841 12.55 19.4853 15.0186 19.4853C17.4872 19.4853 19.4884 17.4841 19.4884 15.0155Z" fill="#D0826E"/>
<path d="M15.0127 19.4812C17.4767 19.4812 19.4814 17.4765 19.4814 15.0125C19.4814 12.5485 17.4767 10.5438 15.0127 10.5438V19.4812Z" fill="#A66B62"/>
</g>
<defs>
<clipPath id="clip0_40_232">
<rect width="24" height="24" fill="white"/>
</clipPath>
</defs>
</svg>
