<svg width="102" height="101" viewBox="0 0 102 101" fill="none" xmlns="http://www.w3.org/2000/svg">
<g opacity="0.5">
<path d="M17.6071 42.9993L14.1525 3.84229H51.3945L49.2036 42.9993H17.6071Z" fill="#CAEEC5"/>
<path d="M50.5613 18.7332L49.2036 42.9997H17.6072L15.2791 16.6132C19.533 13.3467 27.8617 13.786 32.85 16.6844C34.6153 17.7106 36.8234 18.4085 39.1182 18.7334H39.9746H50.5615L50.5613 18.7332Z" fill="#FF7B00"/>
<path d="M71.5321 36.1221V47.9095C71.5321 67.3593 55.4619 83.2729 35.8207 83.2729H35.8201H35.8195C16.1784 83.2729 0.108185 67.3591 0.108185 47.9095V36.1221H35.8199H71.5321Z" fill="#CAEEC5"/>
<path d="M34.7886 73.087C31.9519 74.7084 28.294 73.7378 26.6573 70.9305L24.1873 66.6946C22.8566 64.4103 23.2568 61.5865 24.9796 59.7397C24.9262 59.6724 24.876 59.6014 24.8318 59.5246L0.237458 17.0695C-0.251424 16.2252 0.0390365 15.1462 0.886712 14.6589C1.73399 14.1717 2.81774 14.4613 3.30682 15.3056L27.901 57.7607C27.9468 57.84 27.9837 57.9218 28.0161 58.0047C30.4932 57.449 33.1645 58.5156 34.4967 60.8011L36.967 65.0358C38.6034 67.8433 37.623 71.4665 34.7886 73.087Z" fill="#5B5B5B"/>
<path d="M71.4892 49.6177C70.5816 68.2826 54.8836 83.2736 35.8205 83.2736H35.8199H35.8193C16.7563 83.2736 1.05844 68.2826 0.150604 49.6177H71.4892Z" fill="#CF8F3D"/>
<path d="M0.108368 47.91V36.1226H4.5378V47.9102C4.5378 64.9768 18.5708 78.8615 35.8193 78.8615C53.0693 78.8615 67.102 64.9768 67.102 47.9102V36.1226H71.5317V47.91C71.5317 67.3598 55.4615 83.2734 35.8203 83.2734H35.8197H35.8191C16.1783 83.2734 0.108368 67.3596 0.108368 47.91Z" fill="#97BAA8"/>
<path d="M101.988 95.3929C101.988 96.3676 101.195 97.1578 100.216 97.1578H1.88022C0.901657 97.1578 0.108368 96.3676 0.108368 95.3929C0.108368 94.4182 0.901458 93.6279 1.88022 93.6279H100.216C101.195 93.6279 101.988 94.4182 101.988 95.3929Z" fill="#9E9D9D"/>
<path d="M45.7014 57.5592H45.3607C44.3821 57.5592 43.5889 56.7689 43.5889 55.7942C43.5889 54.8195 44.3819 54.0293 45.3607 54.0293H45.7014C46.6799 54.0293 47.4732 54.8195 47.4732 55.7942C47.4732 56.7689 46.6801 57.5592 45.7014 57.5592ZM47.8326 67.6913H47.4914C46.5128 67.6913 45.7195 68.4816 45.7195 69.4563C45.7195 70.431 46.5126 71.2212 47.4914 71.2212H47.8326C48.8112 71.2212 49.6045 70.431 49.6045 69.4563C49.6043 68.4816 48.8112 67.6913 47.8326 67.6913ZM12.7231 57.0031H12.3818C11.4033 57.0031 10.61 57.7933 10.61 58.768C10.61 59.7427 11.4031 60.5329 12.3818 60.5329H12.7231C13.7017 60.5329 14.495 59.7427 14.495 58.768C14.495 57.7933 13.7017 57.0031 12.7231 57.0031Z" fill="#663310"/>
<path d="M100.228 49.5085H92.2307V46.6479H76.5795H61.0349V67.827C61.0349 76.3224 68.0537 83.2729 76.6325 83.2729C85.2124 83.2729 92.2307 76.3224 92.2307 67.827V66.7256H100.228C101.207 66.7256 102 65.9354 102 64.9607V51.2732C102 50.2987 101.207 49.5085 100.228 49.5085ZM98.4563 63.196H92.2309V53.0382H98.4563V63.196Z" fill="#981700"/>
<path d="M61.0349 67.8275V46.6484H62.163H76.5795H77.8144V67.8275C77.8144 73.7514 74.3998 78.9207 69.4247 81.5094C64.4499 78.9207 61.0349 73.7514 61.0349 67.8275Z" fill="#C13421"/>
<path d="M86.7622 37.1641C86.4117 37.5653 85.9195 37.7707 85.4246 37.7707C85.0122 37.7707 84.598 37.6283 84.2626 37.3375C83.5243 36.698 83.4464 35.5832 84.0884 34.8476C86.2717 32.3479 86.1806 26.6844 83.9014 23.1939C81.1512 18.9823 80.5517 11.4671 84.0884 7.41723C84.7309 6.68183 85.8499 6.60411 86.588 7.24403C87.3263 7.88377 87.4042 8.99832 86.7622 9.73392C84.5789 12.2337 84.6323 17.8398 86.8719 21.2694C89.7174 25.6266 90.3525 33.0533 86.7622 37.1641ZM78.3233 9.73372C78.9653 8.99832 78.8876 7.88357 78.1491 7.24384C77.411 6.60411 76.2918 6.68183 75.6495 7.41704C72.1128 11.4669 72.7121 18.9819 75.4625 23.1938C77.7417 26.6842 77.8328 32.3477 75.6495 34.8474C75.0075 35.5828 75.0852 36.6974 75.8237 37.3373C76.1591 37.6281 76.5733 37.7705 76.9857 37.7705C77.4806 37.7705 77.9728 37.5649 78.3233 37.1639C81.9132 33.0533 81.2785 25.6264 78.433 21.2692C76.1934 17.8396 76.1402 12.2335 78.3233 9.73372Z" fill="#FFBB5E"/>
<path d="M36.9668 65.0355C38.6032 67.843 37.6231 71.4663 34.7884 73.0867C31.9517 74.708 28.2938 73.7375 26.6571 70.9302L24.1871 66.6943C22.8564 64.41 23.2566 61.5861 24.9794 59.7393C24.926 59.672 24.8758 59.601 24.8316 59.5243L11.2748 36.1221H15.3661L27.901 57.7599C27.9468 57.8392 27.9837 57.9211 28.0161 58.004C30.4932 57.4483 33.1645 58.5149 34.4967 60.8004L36.9668 65.0355Z" fill="#5B7F81"/>
</g>
</svg>
