<svg width="16" height="16" viewBox="0 0 16 16" fill="none" xmlns="http://www.w3.org/2000/svg">
<path d="M11.332 1.33337H4.66536C2.82442 1.33337 1.33203 2.82576 1.33203 4.66671V11.3334C1.33203 13.1743 2.82442 14.6667 4.66536 14.6667H11.332C13.173 14.6667 14.6654 13.1743 14.6654 11.3334V4.66671C14.6654 2.82576 13.173 1.33337 11.332 1.33337Z" stroke="#222070" stroke-width="1.5" stroke-linecap="round" stroke-linejoin="round"/>
<path d="M10.6678 7.57996C10.75 8.13479 10.6553 8.70143 10.3969 9.1993C10.1386 9.69717 9.72987 10.1009 9.22886 10.3531C8.72784 10.6052 8.16007 10.693 7.6063 10.6039C7.05252 10.5148 6.54095 10.2533 6.14433 9.85673C5.74772 9.46012 5.48626 8.94854 5.39715 8.39477C5.30804 7.84099 5.39582 7.27322 5.64799 6.77221C5.90017 6.27119 6.3039 5.86245 6.80176 5.60412C7.29963 5.34579 7.86628 5.25102 8.42111 5.33329C8.98706 5.41721 9.51101 5.68093 9.91557 6.08549C10.3201 6.49006 10.5839 7.01401 10.6678 7.57996Z" stroke="#222070" stroke-width="1.5" stroke-linecap="round" stroke-linejoin="round"/>
<path d="M11.668 4.33337H11.6746" stroke="#222070" stroke-width="1.5" stroke-linecap="round" stroke-linejoin="round"/>
</svg>
