<svg width="40" height="35" viewBox="0 0 40 35" fill="none" xmlns="http://www.w3.org/2000/svg">
<path d="M25.3353 26.7562V21.1569L21.1472 25.4118C20.5204 26.0485 19.4798 26.0485 18.853 25.4118L14.6647 21.1567V26.7562C14.6647 27.5114 14.0402 28.1236 13.2699 28.1236C12.4995 28.1236 11.875 27.5114 11.875 26.7562V18.2545C11.875 16.8488 13.6205 16.1579 14.6163 17.1695L19.9999 22.6385L25.3837 17.1695C26.3795 16.1579 28.125 16.8488 28.125 18.2545V26.7562C28.125 27.5114 27.5005 28.1236 26.7301 28.1236C25.9598 28.1236 25.3353 27.5114 25.3353 26.7562Z" fill="#B7410E"/>
<path fill-rule="evenodd" clip-rule="evenodd" d="M40 11.9283C40 15.2768 38.1548 18.3364 35.2787 19.9612V31.5183C35.2787 31.5183 35.2787 35 31.9252 35H8.27118C4.98125 35 4.72131 31.5183 4.72131 31.5183V19.9612C1.84521 18.3364 0 15.2768 0 11.9283C0 6.83081 4.19522 2.68353 9.35197 2.68353C10.3087 2.68353 11.2599 2.82948 12.1671 3.11166C14.2597 1.11681 17.0338 0 20.0001 0C22.9663 0 25.7404 1.11681 27.8329 3.11166C28.7399 2.82948 29.6912 2.68353 30.6479 2.68353C35.8046 2.68353 40 6.83066 40 11.9283ZM32.4731 19.0082C32.4731 18.0213 32.8032 17.5666 33.7573 17.2311C35.8911 16.4811 36.9998 14.0571 36.9998 11.7336C36.9998 8.68502 34.3086 5.96915 31.3913 5.96915C30.4966 5.96915 29.6481 6.19457 28.8691 6.63899C27.8486 7.22143 26.576 6.93713 25.8701 5.96915C24.4579 4.03268 22.3176 2.92222 19.9985 2.92222C17.6792 2.92222 15.5389 4.03268 14.1265 5.96931C13.4208 6.93697 12.148 7.2211 11.1275 6.63915C10.3487 6.19457 9.50016 5.96931 8.60529 5.96931C5.68818 5.96931 3.23534 8.68502 3.23534 11.7338C3.23534 14.0571 4.69115 16.4812 6.82515 17.2311C7.77925 17.5666 7.82407 17.9942 7.82407 19.0082C7.82407 19.0082 7.82407 28.3116 7.82407 29.9568C7.82407 31.602 8.48624 31.788 9.92466 31.7936H30.4427C32.041 31.7936 32.4731 31.5183 32.4731 29.9568C32.4731 28.3953 32.4731 19.0082 32.4731 19.0082Z" fill="#B7410E"/>
</svg>
