<svg width="28" height="28" viewBox="0 0 28 28" fill="none" xmlns="http://www.w3.org/2000/svg">
<path d="M14.1626 27.0661C12.4691 27.0772 10.7903 26.7394 9.22269 26.072C7.65509 25.4046 6.22968 24.4209 5.02853 23.1775C4.79675 22.9346 4.66666 22.6061 4.66666 22.2636C4.66666 21.9212 4.79675 21.5927 5.02853 21.3498L21.5296 4.11032C21.7627 3.86891 22.0781 3.7334 22.4069 3.7334C22.7356 3.7334 23.051 3.86891 23.2842 4.11032C24.9493 5.84365 26.1275 8.01838 26.6912 10.3991C27.2549 12.7798 27.1827 15.2757 26.4824 17.6167C26.4381 17.7841 26.362 17.9405 26.2587 18.0766C26.1553 18.2128 26.0267 18.3259 25.8805 18.4093C25.7344 18.4927 25.5736 18.5447 25.4078 18.5622C25.242 18.5796 25.0746 18.5622 24.9153 18.511C24.7561 18.4598 24.6084 18.3758 24.4809 18.2639C24.3535 18.1521 24.2489 18.0147 24.1733 17.86C24.0978 17.7053 24.0529 17.5363 24.0412 17.3632C24.0296 17.19 24.0514 17.0162 24.1055 16.852C24.4171 15.8068 24.5765 14.7189 24.5784 13.6244C24.5863 11.1923 23.8009 8.82945 22.3509 6.92308L7.72892 22.1535C9.73169 23.7935 12.2421 24.6121 14.7851 24.4545C17.3282 24.2968 19.7277 23.1739 21.5296 21.298C21.6664 21.1554 21.8033 20.9998 21.9278 20.8443C22.0373 20.7175 22.1697 20.6144 22.3174 20.5409C22.4652 20.4673 22.6254 20.4249 22.7889 20.4158C22.9524 20.4068 23.116 20.4314 23.2704 20.4882C23.4248 20.5451 23.5669 20.633 23.6886 20.7471C23.8104 20.8611 23.9094 20.999 23.9799 21.1529C24.0505 21.3068 24.0913 21.4737 24.1 21.644C24.1086 21.8143 24.085 21.9847 24.0305 22.1455C23.9759 22.3064 23.8915 22.4544 23.782 22.5812L23.334 23.1775C22.1292 24.4267 20.6979 25.4139 19.1233 26.0815C17.5488 26.7491 15.8625 27.0838 14.1626 27.0661Z" fill="currentColor"/>
<path d="M18.5149 18.6664C18.3707 18.6675 18.2278 18.6307 18.0944 18.5582C17.961 18.4856 17.8396 18.3787 17.7373 18.2436L17.1239 17.4272C17.0213 17.2917 16.9398 17.1305 16.8842 16.9528C16.8286 16.7751 16.8 16.5846 16.8 16.3921C16.8 16.1997 16.8286 16.0091 16.8842 15.8315C16.9398 15.6538 17.0213 15.4926 17.1239 15.357C17.3291 15.0855 17.6067 14.9331 17.8961 14.9331C18.1854 14.9331 18.463 15.0855 18.6682 15.357L19.2815 16.188C19.4855 16.4612 19.6 16.8307 19.6 17.2158C19.6 17.601 19.4855 17.9705 19.2815 18.2436C19.0775 18.513 18.8022 18.6648 18.5149 18.6664Z" fill="currentColor"/>
<path d="M21.8455 14.9333C21.4534 14.9291 21.0793 14.8093 20.8049 14.6L19.9575 13.9668C19.7139 13.7543 19.5867 13.4809 19.6011 13.2013C19.6156 12.9217 19.7707 12.6565 20.0354 12.4587C20.3002 12.2608 20.6551 12.1449 21.0293 12.1341C21.4034 12.1233 21.7693 12.2184 22.0536 12.4004L22.901 13.0336C23.1779 13.2418 23.3333 13.5234 23.3333 13.8168C23.3333 14.1103 23.1779 14.3919 22.901 14.6C22.7633 14.705 22.5992 14.7885 22.418 14.8457C22.2368 14.9029 22.0422 14.9327 21.8455 14.9333Z" fill="currentColor"/>
<path d="M14.7736 22.3998C14.6305 22.4009 14.4888 22.3642 14.3563 22.2918C14.2239 22.2194 14.1035 22.1127 14.0019 21.9778L13.3825 21.1484C13.1793 20.8744 13.0657 20.5035 13.0667 20.1173C13.0677 19.7312 13.1833 19.3614 13.3879 19.0893C13.5925 18.8172 13.8695 18.6651 14.1579 18.6665C14.4463 18.6679 14.7225 18.8226 14.9257 19.0966L15.5452 19.9115C15.6471 20.0468 15.7279 20.2077 15.7831 20.385C15.8383 20.5624 15.8667 20.7526 15.8667 20.9447C15.8667 21.1367 15.8383 21.3269 15.7831 21.5043C15.7279 21.6816 15.6471 21.8425 15.5452 21.9778C15.4437 22.1127 15.3232 22.2194 15.1908 22.2918C15.0584 22.3642 14.9166 22.4009 14.7736 22.3998Z" fill="currentColor"/>
<path d="M4.2342 18.6665C4.00247 18.6621 3.77639 18.5907 3.58086 18.46C3.38533 18.3294 3.22793 18.1447 3.12599 17.9262C2.30695 16.1962 1.87616 14.2924 1.86667 12.3606C1.86667 8.80437 4.29716 4.95734 8.23885 4.95734C9.53455 4.97952 10.8055 5.3335 11.9413 5.98851C13.004 5.13377 14.3049 4.66928 15.6437 4.6665C17.1957 4.68587 18.7075 5.18727 19.9883 6.10749C20.2639 6.30734 20.4525 6.61391 20.5127 6.95976C20.573 7.30562 20.4998 7.66242 20.3095 7.95168C20.1191 8.24094 19.8271 8.43896 19.4976 8.50218C19.1681 8.5654 18.8283 8.48864 18.5527 8.28879C17.6968 7.6673 16.6843 7.3268 15.6437 7.31051C15.1356 7.30569 14.6322 7.4126 14.1659 7.62435C13.6996 7.8361 13.2807 8.14799 12.9361 8.53997C12.7352 8.74892 12.4732 8.8808 12.1922 8.91437C11.9112 8.94795 11.6276 8.88126 11.3872 8.72505C10.4547 8.05857 9.36548 7.67438 8.23885 7.61457C5.7202 7.61457 4.38532 10.3776 4.38532 12.3738C4.38742 13.895 4.71901 15.3959 5.355 16.7628C5.50346 17.0767 5.52717 17.4395 5.42091 17.7717C5.31465 18.1039 5.08711 18.3782 4.7883 18.5343C4.61478 18.6196 4.4258 18.6647 4.2342 18.6665Z" fill="currentColor"/>
<path d="M12.2466 8.39959C12.0614 8.40255 11.8777 8.36943 11.7088 8.3026C11.3783 8.1747 11.1182 7.93799 10.9841 7.64331C10.85 7.34863 10.8527 7.01947 10.9916 6.72653C11.0567 6.5811 11.1075 6.43103 11.1433 6.27796C11.2028 6.00615 11.2351 5.7303 11.2399 5.45356C11.2649 5.0146 11.1644 4.57713 10.9476 4.18111C10.7307 3.78508 10.4045 3.44312 9.99867 3.18644C9.68647 3.02043 9.46184 2.75243 9.37395 2.44112C9.28607 2.12981 9.3421 1.80058 9.52977 1.52551C9.71388 1.25351 10.0117 1.0556 10.3596 0.974044C10.7075 0.892491 11.0778 0.93377 11.3916 1.08906C12.2136 1.56055 12.8847 2.20915 13.3409 2.97311C13.7972 3.73708 14.0234 4.59099 13.9981 5.45356C13.9934 5.9012 13.9426 6.34755 13.8464 6.78715C13.7627 7.0786 13.6614 7.36593 13.543 7.64793C13.4378 7.87317 13.2578 8.06534 13.0266 8.19941C12.7954 8.33348 12.5236 8.40323 12.2466 8.39959Z" fill="currentColor"/>
</svg>
