<svg width="24" height="24" viewBox="0 0 24 24" fill="none" xmlns="http://www.w3.org/2000/svg">
<g clip-path="url(#clip0_40_251)">
<path d="M10.0384 16.2707L7.60471 13.837C7.3281 13.5604 6.87961 13.5604 6.60304 13.837L4.06678 16.3733C3.01992 15.9186 1.78368 16.1346 0.944387 16.9738C-0.159848 18.0781 -0.159848 19.8748 0.944387 20.979C1.33561 21.3702 1.83346 21.6356 2.3685 21.7477C2.48062 22.2827 2.74607 22.7806 3.13725 23.1718C3.68929 23.724 4.41454 24 5.13975 24C5.86495 24 6.59025 23.724 7.14239 23.1718C8.07375 22.2405 8.21962 20.8165 7.57982 19.7309L10.0383 17.2724C10.3149 16.9958 10.3149 16.5473 10.0384 16.2707Z" fill="#CCE6FF"/>
<path d="M21.559 2.15995C20.1311 0.771891 18.24 0.00482813 16.2338 0H16.2148C14.2157 0 12.3283 0.757688 10.8987 2.13464C9.49287 3.48863 8.66192 5.30578 8.55884 7.25138C8.4402 9.49144 7.50767 11.5922 5.93304 13.1669C5.65643 13.4435 5.65643 13.892 5.93304 14.1686L9.70695 17.9425C9.77272 18.0083 9.8508 18.0604 9.93673 18.096C10.0227 18.1316 10.1148 18.1499 10.2078 18.1499C10.3008 18.1499 10.3929 18.1316 10.4788 18.096C10.5648 18.0604 10.6429 18.0083 10.7086 17.9425C12.3006 16.3505 14.381 15.4189 16.5667 15.3195C18.481 15.2324 20.2819 14.4377 21.6378 13.0818C23.1006 11.619 23.8982 9.67411 23.8835 7.60523C23.8689 5.53673 23.0434 3.60295 21.559 2.15995Z" fill="#E67263"/>
<path d="M7.58028 19.7308L10.0387 17.2723C10.3153 16.9957 10.3153 16.5473 10.0387 16.2707L8.82191 15.0538L2.17578 21.7C2.23953 21.7181 2.30394 21.734 2.36891 21.7477C2.48103 22.2827 2.74648 22.7806 3.13766 23.1718C3.68975 23.7239 4.415 24 5.1402 24C5.86541 24 6.5907 23.7239 7.14284 23.1718C8.0742 22.2404 8.22003 20.8165 7.58028 19.7308Z" fill="#BDDEFF"/>
<path d="M21.6377 2.2381L7.82031 16.0555L9.70727 17.9425C9.77304 18.0083 9.85112 18.0604 9.93705 18.096C10.023 18.1316 10.1151 18.1499 10.2081 18.1499C10.3011 18.1499 10.3932 18.1316 10.4792 18.096C10.5651 18.0604 10.6432 18.0083 10.7089 17.9425C12.3009 16.3505 14.3814 15.4189 16.567 15.3195C18.4813 15.2324 20.2823 14.4377 21.6381 13.0818C23.101 11.619 23.8985 9.67411 23.8838 7.60524C23.8695 5.57372 23.0725 3.67243 21.6377 2.2381Z" fill="#DD5F46"/>
</g>
<defs>
<clipPath id="clip0_40_251">
<rect width="24" height="24" fill="white"/>
</clipPath>
</defs>
</svg>
