<svg width="24" height="24" viewBox="0 0 24 24" fill="none" xmlns="http://www.w3.org/2000/svg">
<path d="M9.2122 22.0451C9.85689 22.2857 11.3209 22.2718 11.8197 22.2009C11.9214 22.1879 12.0241 22.2157 12.1057 22.2784C12.1873 22.3411 12.2413 22.4336 12.256 22.5361C12.2708 22.6386 12.2451 22.7428 12.1845 22.8264C12.124 22.9099 12.0333 22.9661 11.9322 22.9829C6.42816 23.8938 2.85195 18.8572 2.99951 14.4958C3.07708 12.2021 4.2704 10.1949 5.11514 8.99552C7.04107 6.34987 9.42273 5.06126 8.82437 1.37925C8.81325 1.30707 8.82214 1.2332 8.85005 1.16582C8.87797 1.09844 8.92381 1.04019 8.9825 0.997528C9.0412 0.954869 9.11044 0.929469 9.18255 0.924147C9.25466 0.918824 9.32683 0.933788 9.39103 0.967377C10.2993 1.41487 11.0667 2.10845 11.6076 2.97076C12.6842 4.7097 11.8749 6.31655 12.9523 7.96261C13.2226 8.35094 13.5517 8.69392 13.9274 8.97897C13.7727 6.66331 14.9247 5.66857 14.9794 5.62263C15.0518 5.5621 15.1433 5.52991 15.2373 5.53197C15.3312 5.53402 15.4213 5.57018 15.491 5.63383C16.7106 6.70488 17.6891 8.02732 18.3607 9.51221C19.0322 10.9971 19.3812 13.4672 19.3843 15.0997C19.3808 15.2034 19.3371 15.3015 19.2627 15.3729C19.1882 15.4444 19.089 15.4834 18.9863 15.4816C18.8836 15.4797 18.7858 15.4372 18.7138 15.3632C18.6419 15.2892 18.6017 15.1896 18.6018 15.0858C18.5993 13.6335 18.3009 11.3402 17.7253 10.0093C17.1497 8.67854 16.3092 7.48162 15.256 6.49308C14.9507 6.92772 14.4769 7.9294 14.8074 9.69579C14.8211 9.76922 14.8139 9.84507 14.7867 9.91454C14.7594 9.984 14.7133 10.0443 14.6535 10.0883C14.5938 10.1323 14.5229 10.1584 14.4491 10.1634C14.3753 10.1684 14.3016 10.1521 14.2366 10.1165C13.4712 9.70944 12.8112 9.12636 12.3099 8.41429C10.811 6.12203 12.357 3.85819 9.67904 2.05973C9.90465 5.5626 7.58086 6.96186 5.76138 9.44141C4.90775 10.6535 3.92666 12.4403 3.85673 14.4958C3.85673 17.1166 5.56763 21.0777 9.2122 22.0451Z" fill="currentColor" stroke="currentColor" stroke-width="0.75"/>
<path d="M19.9469 18.6435H17.3574V16.0531C17.354 15.8863 17.2855 15.7275 17.1664 15.6107C17.0474 15.494 16.8873 15.4286 16.7205 15.4286C16.5538 15.4286 16.3937 15.494 16.2746 15.6108C16.1556 15.7276 16.087 15.8864 16.0837 16.0532V18.6435H13.4942C13.3253 18.6435 13.1634 18.7106 13.0439 18.8301C12.9245 18.9495 12.8574 19.1116 12.8574 19.2805C12.8574 19.4494 12.9245 19.6115 13.0439 19.7309C13.1634 19.8504 13.3253 19.9175 13.4942 19.9175H16.0837V22.5079C16.0843 22.6765 16.1516 22.838 16.271 22.957C16.3903 23.076 16.552 23.1429 16.7205 23.1429C16.8891 23.1429 17.0508 23.076 17.1701 22.957C17.2895 22.838 17.3568 22.6765 17.3574 22.5079V19.9175H19.9469C20.1137 19.9143 20.2726 19.8458 20.3894 19.7267C20.5063 19.6076 20.5717 19.4474 20.5717 19.2805C20.5717 19.1136 20.5063 18.9534 20.3894 18.8343C20.2726 18.7151 20.1137 18.6466 19.9469 18.6435Z" fill="currentColor"/>
</svg>
