<svg width="21" height="24" viewBox="0 0 21 24" fill="none" xmlns="http://www.w3.org/2000/svg">
<path d="M18.75 24H2.25C1.65346 23.9993 1.08155 23.7621 0.659733 23.3403C0.237918 22.9185 0.000655109 22.3465 0 21.75V2.25C0.000655109 1.65346 0.237918 1.08155 0.659733 0.659733C1.08155 0.237918 1.65346 0.000655109 2.25 0L18.75 0C19.3465 0.000655109 19.9185 0.237918 20.3403 0.659733C20.7621 1.08155 20.9993 1.65346 21 2.25V21.75C20.9993 22.3465 20.7621 22.9185 20.3403 23.3403C19.9185 23.7621 19.3465 23.9993 18.75 24ZM2.25 1.5C2.05117 1.50026 1.86055 1.57936 1.71995 1.71995C1.57936 1.86055 1.50026 2.05117 1.5 2.25V21.75C1.50026 21.9488 1.57936 22.1394 1.71995 22.28C1.86055 22.4206 2.05117 22.4997 2.25 22.5H18.75C18.9488 22.4997 19.1394 22.4206 19.28 22.28C19.4206 22.1394 19.4997 21.9488 19.5 21.75V2.25C19.4997 2.05117 19.4206 1.86055 19.28 1.71995C19.1394 1.57936 18.9488 1.50026 18.75 1.5H2.25Z" fill="currentColor"/>
<path d="M3.75 24C3.55109 24 3.36032 23.921 3.21967 23.7803C3.07902 23.6397 3 23.4489 3 23.25V0.75C3 0.551088 3.07902 0.360322 3.21967 0.21967C3.36032 0.0790176 3.55109 0 3.75 0C3.94891 0 4.13968 0.0790176 4.28033 0.21967C4.42098 0.360322 4.5 0.551088 4.5 0.75V23.25C4.5 23.4489 4.42098 23.6397 4.28033 23.7803C4.13968 23.921 3.94891 24 3.75 24Z" fill="currentColor"/>
<path d="M14.7689 16.4998H9.23109C8.82174 16.4987 8.42955 16.3352 8.14058 16.0453C7.8516 15.7554 7.68945 15.3627 7.68969 14.9533V10.6291C7.13452 10.3651 6.6829 9.92399 6.40591 9.37518C6.12893 8.82638 6.04231 8.20104 6.15969 7.59761C6.28167 6.9778 6.61516 6.41961 7.10315 6.01848C7.59114 5.61735 8.20331 5.39818 8.83501 5.39846H8.83606C9.25379 5.39688 9.66599 5.49401 10.0391 5.68196C10.2167 5.77147 10.3515 5.92788 10.4138 6.11678C10.4761 6.30569 10.4609 6.51161 10.3713 6.68925C10.2818 6.86689 10.1254 7.00169 9.93652 7.06401C9.74762 7.12632 9.5417 7.11105 9.36406 7.02153C9.20019 6.93939 9.01921 6.89722 8.83591 6.89846C8.52993 6.90156 8.23585 7.01743 8.00998 7.22387C7.78412 7.43031 7.64234 7.71281 7.61181 8.01728C7.58128 8.32175 7.66414 8.62678 7.84451 8.87396C8.02489 9.12114 8.29011 9.29309 8.58939 9.35688C8.7589 9.39134 8.91129 9.48334 9.02075 9.61729C9.1302 9.75124 9.18999 9.9189 9.18999 10.0919V14.9533L14.7692 14.9998L14.8106 10.0919C14.8106 9.9189 14.8704 9.75124 14.9799 9.61729C15.0893 9.48334 15.2417 9.39134 15.4112 9.35688C15.7105 9.2931 15.9757 9.12117 16.1561 8.87402C16.3365 8.62688 16.4193 8.32188 16.3888 8.01743C16.3583 7.71298 16.2166 7.43048 15.9908 7.22401C15.765 7.01755 15.471 6.90163 15.165 6.89846C14.9815 6.89726 14.8004 6.93943 14.6363 7.02153C14.459 7.10779 14.2549 7.12079 14.0681 7.05771C13.8813 6.99463 13.7269 6.86055 13.6382 6.68448C13.5496 6.50841 13.5338 6.30451 13.5943 6.11689C13.6548 5.92927 13.7868 5.77303 13.9616 5.68196C14.3347 5.49388 14.7469 5.39674 15.1647 5.39846C15.7965 5.39803 16.4092 5.61723 16.8972 6.01853C17.3852 6.41983 17.7185 6.97828 17.8402 7.59828C17.9574 8.20161 17.8706 8.82678 17.5937 9.37544C17.3167 9.92409 16.8652 10.3651 16.3102 10.6291V14.9533C16.3104 15.3626 16.1483 15.7553 15.8593 16.0453C15.5704 16.3352 15.1783 16.4987 14.7689 16.4998Z" fill="currentColor"/>
<path d="M15.5603 13.5H8.43967C8.24075 13.5 8.04999 13.421 7.90934 13.2803C7.76868 13.1397 7.68967 12.9489 7.68967 12.75C7.68967 12.5511 7.76868 12.3603 7.90934 12.2197C8.04999 12.079 8.24075 12 8.43967 12H15.5603C15.7592 12 15.95 12.079 16.0906 12.2197C16.2313 12.3603 16.3103 12.5511 16.3103 12.75C16.3103 12.9489 16.2313 13.1397 16.0906 13.2803C15.95 13.421 15.7592 13.5 15.5603 13.5Z" fill="currentColor"/>
<path d="M9.66466 8.12009C9.48941 8.11989 9.31975 8.05832 9.18516 7.94607C9.05057 7.83382 8.95953 7.67798 8.92786 7.50561C8.84536 7.05606 8.86253 6.59389 8.97814 6.15169C9.09376 5.7095 9.30502 5.29807 9.597 4.94644C9.88898 4.59481 10.2546 4.31154 10.668 4.11662C11.0814 3.92171 11.5326 3.8199 11.9896 3.81838C12.4467 3.81685 12.8985 3.91566 13.3132 4.10781C13.7279 4.29997 14.0954 4.5808 14.3897 4.93048C14.684 5.28016 14.898 5.69017 15.0165 6.13158C15.1351 6.573 15.1553 7.03505 15.0758 7.48514C15.0413 7.68106 14.9303 7.85523 14.7673 7.96932C14.6043 8.08341 14.4026 8.12808 14.2067 8.0935C14.0108 8.05892 13.8366 7.94792 13.7225 7.78493C13.6084 7.62193 13.5638 7.42029 13.5983 7.22436C13.6395 6.99054 13.6288 6.75054 13.5671 6.52129C13.5054 6.29203 13.3942 6.07911 13.2412 5.89752C13.0883 5.71593 12.8974 5.57009 12.682 5.4703C12.4665 5.37051 12.2318 5.31918 11.9944 5.31995C11.757 5.32071 11.5227 5.37354 11.3079 5.47472C11.0931 5.57589 10.9032 5.72295 10.7514 5.90552C10.5996 6.08809 10.4898 6.30173 10.4295 6.53138C10.3693 6.76102 10.3602 7.00108 10.4028 7.23464C10.4226 7.34284 10.4184 7.45407 10.3904 7.56045C10.3625 7.66683 10.3115 7.76577 10.241 7.85025C10.1706 7.93473 10.0824 8.0027 9.98279 8.04933C9.88317 8.09596 9.77466 8.12011 9.66466 8.12009Z" fill="currentColor"/>
<path d="M16.5 19.5H7.5C7.30109 19.5 7.11032 19.421 6.96967 19.2803C6.82902 19.1397 6.75 18.9489 6.75 18.75C6.75 18.5511 6.82902 18.3603 6.96967 18.2197C7.11032 18.079 7.30109 18 7.5 18H16.5C16.6989 18 16.8897 18.079 17.0303 18.2197C17.171 18.3603 17.25 18.5511 17.25 18.75C17.25 18.9489 17.171 19.1397 17.0303 19.2803C16.8897 19.421 16.6989 19.5 16.5 19.5Z" fill="currentColor"/>
</svg>
