<svg width="27" height="27" viewBox="0 0 27 27" fill="none" xmlns="http://www.w3.org/2000/svg">
<path fill-rule="evenodd" clip-rule="evenodd" d="M17.1366 4.90588C15.1724 4.90588 13.5205 6.3138 13.1395 8.16984H2.4488C1.99815 8.16984 1.63281 8.53517 1.63281 8.98583C1.63281 9.43648 1.99815 9.80182 2.4488 9.80182H13.1395C13.5205 11.6579 15.1724 13.0658 17.1366 13.0658C19.1008 13.0658 20.7527 11.6579 21.1337 9.80182H23.6645C24.1152 9.80182 24.4805 9.43648 24.4805 8.98583C24.4805 8.53517 24.1152 8.16984 23.6645 8.16984H21.1337C20.7527 6.3138 19.1008 4.90588 17.1366 4.90588ZM17.1366 6.53786C18.4982 6.53786 19.5846 7.62421 19.5846 8.98583C19.5846 10.3474 18.4982 11.4338 17.1366 11.4338C15.775 11.4338 14.6886 10.3474 14.6886 8.98583C14.6886 7.62421 15.775 6.53786 17.1366 6.53786Z" fill="#B7410E"/>
<path fill-rule="evenodd" clip-rule="evenodd" d="M8.97671 13.0658C7.01247 13.0658 5.36062 14.4737 4.97964 16.3298H2.4488C1.99815 16.3298 1.63281 16.6951 1.63281 17.1457C1.63281 17.5964 1.99815 17.9617 2.4488 17.9617H4.97964C5.36062 19.8178 7.01247 21.2257 8.97671 21.2257C10.941 21.2257 12.5928 19.8178 12.9738 17.9617H23.6645C24.1152 17.9617 24.4805 17.5964 24.4805 17.1457C24.4805 16.6951 24.1152 16.3298 23.6645 16.3298H12.9738C12.5928 14.4737 10.941 13.0658 8.97671 13.0658ZM8.97671 14.6978C10.3383 14.6978 11.4247 15.7841 11.4247 17.1457C11.4247 18.5074 10.3383 19.5937 8.97671 19.5937C7.6151 19.5937 6.52875 18.5074 6.52875 17.1457C6.52875 15.7841 7.6151 14.6978 8.97671 14.6978Z" fill="#B7410E"/>
</svg>
