<svg width="20" height="20" viewBox="0 0 20 20" fill="none" xmlns="http://www.w3.org/2000/svg">
<path d="M19.28 15.2013C19.4205 15.3419 19.4993 15.5325 19.4993 15.7313C19.4993 15.93 19.4205 16.1207 19.28 16.2613L16.28 19.2613C16.1394 19.4017 15.9488 19.4806 15.75 19.4806C15.5512 19.4806 15.3606 19.4017 15.22 19.2613C15.0795 19.1207 15.0007 18.93 15.0007 18.7313C15.0007 18.5325 15.0795 18.3419 15.22 18.2013L16.94 16.4813H2.25C1.65326 16.4813 1.08097 16.2442 0.65901 15.8223C0.237053 15.4003 0 14.828 0 14.2313V9.73129C4.19176e-09 9.53238 0.0790175 9.34161 0.21967 9.20096C0.360322 9.06031 0.551088 8.98129 0.75 8.98129C0.948912 8.98129 1.13968 9.06031 1.28033 9.20096C1.42098 9.34161 1.5 9.53238 1.5 9.73129V14.2313C1.50259 14.4294 1.58244 14.6187 1.72253 14.7588C1.86263 14.8989 2.05189 14.9787 2.25 14.9813H16.94L15.22 13.2613C15.0875 13.1191 15.0154 12.9311 15.0188 12.7368C15.0223 12.5425 15.101 12.3571 15.2384 12.2197C15.3758 12.0823 15.5612 12.0035 15.7555 12.0001C15.9498 11.9967 16.1378 12.0688 16.28 12.2013L19.28 15.2013ZM17.28 2.98129H2.56L4.28 1.26129C4.41248 1.11912 4.4846 0.93107 4.48117 0.736769C4.47775 0.542468 4.39903 0.357083 4.26162 0.21967C4.12421 0.0822571 3.93882 0.00354506 3.74452 0.000116847C3.55022 -0.00331137 3.36217 0.0688118 3.22 0.201292L0.22 3.20129C0.0795496 3.34192 0.000659943 3.53254 0.000659943 3.73129C0.000659943 3.93004 0.0795496 4.12067 0.22 4.26129L3.22 7.26129C3.36063 7.40174 3.55125 7.48063 3.75 7.48063C3.94875 7.48063 4.13937 7.40174 4.28 7.26129C4.42045 7.12067 4.49934 6.93004 4.49934 6.73129C4.49934 6.53254 4.42045 6.34192 4.28 6.20129L2.56 4.48129H17.25C17.4481 4.48388 17.6374 4.56373 17.7775 4.70383C17.9176 4.84392 17.9974 5.03318 18 5.23129V9.73129C18 9.9302 18.079 10.121 18.2197 10.2616C18.3603 10.4023 18.5511 10.4813 18.75 10.4813C18.9489 10.4813 19.1397 10.4023 19.2803 10.2616C19.421 10.121 19.5 9.9302 19.5 9.73129V5.23129C19.5 4.63455 19.2629 4.06226 18.841 3.6403C18.419 3.21834 17.8467 2.98129 17.25 2.98129H17.28Z" fill="#B7410E"/>
</svg>
